<mxfile host="Electron" modified="2024-01-20T00:47:45.130Z" agent="Mozilla/5.0 (Macintosh; Intel Mac OS X 10_15_7) AppleWebKit/537.36 (KHTML, like Gecko) draw.io/22.1.18 Chrome/120.0.6099.199 Electron/28.1.2 Safari/537.36" etag="i8xu4yYxoyhHyNmYioNo" version="22.1.18" type="device">
  <diagram name="第 1 页" id="amTX1VgY5_vL3dBJrsxX">
    <mxGraphModel dx="852" dy="545" grid="0" gridSize="10" guides="1" tooltips="1" connect="1" arrows="1" fold="1" page="1" pageScale="1" pageWidth="1654" pageHeight="2336" math="0" shadow="0">
      <root>
        <mxCell id="0" />
        <mxCell id="1" parent="0" />
        <mxCell id="N_l56KZWyoBlaE_ASB7Y-1" value="" style="rounded=0;whiteSpace=wrap;html=1;strokeColor=none;fillColor=none;" parent="1" vertex="1">
          <mxGeometry x="163" y="191" width="622" height="246" as="geometry" />
        </mxCell>
        <mxCell id="N_l56KZWyoBlaE_ASB7Y-2" value="&lt;font style=&quot;font-size: 18px;&quot; face=&quot;Times New Roman&quot;&gt;&lt;b&gt;P0&lt;/b&gt;&lt;/font&gt;" style="text;html=1;strokeColor=none;fillColor=none;align=center;verticalAlign=middle;whiteSpace=wrap;rounded=0;fontColor=#000000;" parent="1" vertex="1">
          <mxGeometry x="159" y="223" width="60" height="30" as="geometry" />
        </mxCell>
        <mxCell id="N_l56KZWyoBlaE_ASB7Y-3" value="&lt;font style=&quot;font-size: 18px;&quot; face=&quot;Times New Roman&quot;&gt;&lt;b&gt;P1&lt;/b&gt;&lt;/font&gt;" style="text;html=1;strokeColor=none;fillColor=none;align=center;verticalAlign=middle;whiteSpace=wrap;rounded=0;fontColor=#000000;" parent="1" vertex="1">
          <mxGeometry x="159" y="275" width="60" height="30" as="geometry" />
        </mxCell>
        <mxCell id="N_l56KZWyoBlaE_ASB7Y-4" value="&lt;font style=&quot;font-size: 18px;&quot; face=&quot;Times New Roman&quot;&gt;&lt;b&gt;P2&lt;/b&gt;&lt;/font&gt;" style="text;html=1;strokeColor=none;fillColor=none;align=center;verticalAlign=middle;whiteSpace=wrap;rounded=0;fontColor=#000000;" parent="1" vertex="1">
          <mxGeometry x="159" y="325" width="60" height="30" as="geometry" />
        </mxCell>
        <mxCell id="N_l56KZWyoBlaE_ASB7Y-5" value="&lt;font style=&quot;font-size: 18px;&quot; face=&quot;Times New Roman&quot;&gt;&lt;b&gt;P3&lt;/b&gt;&lt;/font&gt;" style="text;html=1;strokeColor=none;fillColor=none;align=center;verticalAlign=middle;whiteSpace=wrap;rounded=0;fontColor=#000000;" parent="1" vertex="1">
          <mxGeometry x="159" y="375" width="60" height="30" as="geometry" />
        </mxCell>
        <mxCell id="N_l56KZWyoBlaE_ASB7Y-6" value="" style="html=1;shadow=0;dashed=0;align=center;verticalAlign=middle;shape=mxgraph.arrows2.arrow;dy=0.6;dx=40;notch=15;fillColor=#023047;" parent="1" vertex="1">
          <mxGeometry x="412" y="291" width="155" height="48" as="geometry" />
        </mxCell>
        <mxCell id="N_l56KZWyoBlaE_ASB7Y-7" value="&lt;font style=&quot;font-size: 20px;&quot;&gt;&lt;b style=&quot;&quot;&gt;&lt;i style=&quot;&quot;&gt;Alltoall&lt;/i&gt;&lt;/b&gt;&lt;/font&gt;" style="text;html=1;strokeColor=none;fillColor=none;align=center;verticalAlign=middle;whiteSpace=wrap;rounded=0;" parent="1" vertex="1">
          <mxGeometry x="415" y="263" width="134" height="30" as="geometry" />
        </mxCell>
        <mxCell id="N_l56KZWyoBlaE_ASB7Y-8" value="&lt;b style=&quot;border-color: var(--border-color); font-family: &amp;quot;Times New Roman&amp;quot;; font-size: 18px;&quot;&gt;A0&lt;/b&gt;" style="whiteSpace=wrap;html=1;aspect=fixed;fillColor=#FFB703;" parent="1" vertex="1">
          <mxGeometry x="609" y="219" width="38" height="38" as="geometry" />
        </mxCell>
        <mxCell id="N_l56KZWyoBlaE_ASB7Y-9" value="&lt;b style=&quot;border-color: var(--border-color); font-family: &amp;quot;Times New Roman&amp;quot;; font-size: 18px;&quot;&gt;B0&lt;/b&gt;" style="whiteSpace=wrap;html=1;aspect=fixed;fillColor=#FFB703;" parent="1" vertex="1">
          <mxGeometry x="647" y="219" width="38" height="38" as="geometry" />
        </mxCell>
        <mxCell id="N_l56KZWyoBlaE_ASB7Y-10" value="&lt;b style=&quot;border-color: var(--border-color); font-family: &amp;quot;Times New Roman&amp;quot;; font-size: 18px;&quot;&gt;C0&lt;/b&gt;" style="whiteSpace=wrap;html=1;aspect=fixed;fillColor=#FFB703;" parent="1" vertex="1">
          <mxGeometry x="685" y="219" width="38" height="38" as="geometry" />
        </mxCell>
        <mxCell id="N_l56KZWyoBlaE_ASB7Y-11" value="&lt;b style=&quot;border-color: var(--border-color); font-family: &amp;quot;Times New Roman&amp;quot;; font-size: 18px;&quot;&gt;D0&lt;/b&gt;" style="whiteSpace=wrap;html=1;aspect=fixed;fillColor=#FFB703;" parent="1" vertex="1">
          <mxGeometry x="723" y="219" width="38" height="38" as="geometry" />
        </mxCell>
        <mxCell id="N_l56KZWyoBlaE_ASB7Y-12" value="&lt;b style=&quot;border-color: var(--border-color); font-family: &amp;quot;Times New Roman&amp;quot;; font-size: 18px;&quot;&gt;A1&lt;/b&gt;" style="whiteSpace=wrap;html=1;aspect=fixed;fillColor=#90C9E6;" parent="1" vertex="1">
          <mxGeometry x="609" y="271" width="38" height="38" as="geometry" />
        </mxCell>
        <mxCell id="N_l56KZWyoBlaE_ASB7Y-13" value="&lt;b style=&quot;border-color: var(--border-color); font-family: &amp;quot;Times New Roman&amp;quot;; font-size: 18px;&quot;&gt;B1&lt;/b&gt;" style="whiteSpace=wrap;html=1;aspect=fixed;fillColor=#90C9E6;" parent="1" vertex="1">
          <mxGeometry x="647" y="271" width="38" height="38" as="geometry" />
        </mxCell>
        <mxCell id="N_l56KZWyoBlaE_ASB7Y-14" value="&lt;b style=&quot;border-color: var(--border-color); font-family: &amp;quot;Times New Roman&amp;quot;; font-size: 18px;&quot;&gt;C1&lt;/b&gt;" style="whiteSpace=wrap;html=1;aspect=fixed;fillColor=#90C9E6;" parent="1" vertex="1">
          <mxGeometry x="685" y="271" width="38" height="38" as="geometry" />
        </mxCell>
        <mxCell id="N_l56KZWyoBlaE_ASB7Y-15" value="&lt;b style=&quot;border-color: var(--border-color); font-family: &amp;quot;Times New Roman&amp;quot;; font-size: 18px;&quot;&gt;D1&lt;/b&gt;" style="whiteSpace=wrap;html=1;aspect=fixed;fillColor=#90C9E6;" parent="1" vertex="1">
          <mxGeometry x="723" y="271" width="38" height="38" as="geometry" />
        </mxCell>
        <mxCell id="N_l56KZWyoBlaE_ASB7Y-16" value="&lt;b style=&quot;border-color: var(--border-color); font-family: &amp;quot;Times New Roman&amp;quot;; font-size: 18px;&quot;&gt;A2&lt;/b&gt;" style="whiteSpace=wrap;html=1;aspect=fixed;fillColor=#FB8402;" parent="1" vertex="1">
          <mxGeometry x="609" y="321" width="38" height="38" as="geometry" />
        </mxCell>
        <mxCell id="N_l56KZWyoBlaE_ASB7Y-17" value="&lt;b style=&quot;border-color: var(--border-color); font-family: &amp;quot;Times New Roman&amp;quot;; font-size: 18px;&quot;&gt;B2&lt;/b&gt;" style="whiteSpace=wrap;html=1;aspect=fixed;fillColor=#FB8402;" parent="1" vertex="1">
          <mxGeometry x="647" y="321" width="38" height="38" as="geometry" />
        </mxCell>
        <mxCell id="N_l56KZWyoBlaE_ASB7Y-18" value="&lt;b style=&quot;border-color: var(--border-color); font-family: &amp;quot;Times New Roman&amp;quot;; font-size: 18px;&quot;&gt;C2&lt;/b&gt;" style="whiteSpace=wrap;html=1;aspect=fixed;fillColor=#FB8402;" parent="1" vertex="1">
          <mxGeometry x="685" y="321" width="38" height="38" as="geometry" />
        </mxCell>
        <mxCell id="N_l56KZWyoBlaE_ASB7Y-19" value="&lt;b style=&quot;border-color: var(--border-color); font-family: &amp;quot;Times New Roman&amp;quot;; font-size: 18px;&quot;&gt;D2&lt;/b&gt;" style="whiteSpace=wrap;html=1;aspect=fixed;fillColor=#FB8402;" parent="1" vertex="1">
          <mxGeometry x="723" y="321" width="38" height="38" as="geometry" />
        </mxCell>
        <mxCell id="N_l56KZWyoBlaE_ASB7Y-20" value="&lt;b style=&quot;border-color: var(--border-color); font-family: &amp;quot;Times New Roman&amp;quot;; font-size: 18px;&quot;&gt;A3&lt;/b&gt;" style="whiteSpace=wrap;html=1;aspect=fixed;fillColor=#219EBC;" parent="1" vertex="1">
          <mxGeometry x="609" y="371" width="38" height="38" as="geometry" />
        </mxCell>
        <mxCell id="N_l56KZWyoBlaE_ASB7Y-21" value="&lt;b style=&quot;border-color: var(--border-color); font-family: &amp;quot;Times New Roman&amp;quot;; font-size: 18px;&quot;&gt;B3&lt;/b&gt;" style="whiteSpace=wrap;html=1;aspect=fixed;fillColor=#219EBC;" parent="1" vertex="1">
          <mxGeometry x="647" y="371" width="38" height="38" as="geometry" />
        </mxCell>
        <mxCell id="N_l56KZWyoBlaE_ASB7Y-22" value="&lt;b style=&quot;border-color: var(--border-color); font-family: &amp;quot;Times New Roman&amp;quot;; font-size: 18px;&quot;&gt;C3&lt;/b&gt;" style="whiteSpace=wrap;html=1;aspect=fixed;fillColor=#219EBC;" parent="1" vertex="1">
          <mxGeometry x="685" y="371" width="38" height="38" as="geometry" />
        </mxCell>
        <mxCell id="N_l56KZWyoBlaE_ASB7Y-23" value="&lt;b style=&quot;border-color: var(--border-color); font-family: &amp;quot;Times New Roman&amp;quot;; font-size: 18px;&quot;&gt;D3&lt;/b&gt;" style="whiteSpace=wrap;html=1;aspect=fixed;fillColor=#219EBC;" parent="1" vertex="1">
          <mxGeometry x="723" y="371" width="38" height="38" as="geometry" />
        </mxCell>
        <mxCell id="N_l56KZWyoBlaE_ASB7Y-24" value="&lt;font style=&quot;font-size: 18px;&quot; face=&quot;Times New Roman&quot;&gt;&lt;b&gt;A0&lt;/b&gt;&lt;/font&gt;" style="whiteSpace=wrap;html=1;aspect=fixed;fillColor=#FFB703;" parent="1" vertex="1">
          <mxGeometry x="219" y="219" width="38" height="38" as="geometry" />
        </mxCell>
        <mxCell id="N_l56KZWyoBlaE_ASB7Y-25" value="&lt;b style=&quot;border-color: var(--border-color); font-family: &amp;quot;Times New Roman&amp;quot;; font-size: 18px;&quot;&gt;A1&lt;/b&gt;" style="whiteSpace=wrap;html=1;aspect=fixed;fillColor=#FFB703;" parent="1" vertex="1">
          <mxGeometry x="257" y="219" width="38" height="38" as="geometry" />
        </mxCell>
        <mxCell id="N_l56KZWyoBlaE_ASB7Y-26" value="&lt;b style=&quot;border-color: var(--border-color); font-family: &amp;quot;Times New Roman&amp;quot;; font-size: 18px;&quot;&gt;A2&lt;/b&gt;" style="whiteSpace=wrap;html=1;aspect=fixed;fillColor=#FFB703;" parent="1" vertex="1">
          <mxGeometry x="295" y="219" width="38" height="38" as="geometry" />
        </mxCell>
        <mxCell id="N_l56KZWyoBlaE_ASB7Y-27" value="&lt;b style=&quot;border-color: var(--border-color); font-family: &amp;quot;Times New Roman&amp;quot;; font-size: 18px;&quot;&gt;A3&lt;/b&gt;" style="whiteSpace=wrap;html=1;aspect=fixed;fillColor=#FFB703;" parent="1" vertex="1">
          <mxGeometry x="333" y="219" width="38" height="38" as="geometry" />
        </mxCell>
        <mxCell id="N_l56KZWyoBlaE_ASB7Y-28" value="&lt;b style=&quot;border-color: var(--border-color); font-family: &amp;quot;Times New Roman&amp;quot;; font-size: 18px;&quot;&gt;B0&lt;/b&gt;" style="whiteSpace=wrap;html=1;aspect=fixed;fillColor=#90C9E6;" parent="1" vertex="1">
          <mxGeometry x="219" y="271" width="38" height="38" as="geometry" />
        </mxCell>
        <mxCell id="N_l56KZWyoBlaE_ASB7Y-29" value="&lt;b style=&quot;border-color: var(--border-color); font-family: &amp;quot;Times New Roman&amp;quot;; font-size: 18px;&quot;&gt;B1&lt;/b&gt;" style="whiteSpace=wrap;html=1;aspect=fixed;fillColor=#90C9E6;" parent="1" vertex="1">
          <mxGeometry x="257" y="271" width="38" height="38" as="geometry" />
        </mxCell>
        <mxCell id="N_l56KZWyoBlaE_ASB7Y-30" value="&lt;b style=&quot;border-color: var(--border-color); font-family: &amp;quot;Times New Roman&amp;quot;; font-size: 18px;&quot;&gt;B2&lt;/b&gt;" style="whiteSpace=wrap;html=1;aspect=fixed;fillColor=#90C9E6;" parent="1" vertex="1">
          <mxGeometry x="295" y="271" width="38" height="38" as="geometry" />
        </mxCell>
        <mxCell id="N_l56KZWyoBlaE_ASB7Y-31" value="&lt;b style=&quot;border-color: var(--border-color); font-family: &amp;quot;Times New Roman&amp;quot;; font-size: 18px;&quot;&gt;B3&lt;/b&gt;" style="whiteSpace=wrap;html=1;aspect=fixed;fillColor=#90C9E6;" parent="1" vertex="1">
          <mxGeometry x="333" y="271" width="38" height="38" as="geometry" />
        </mxCell>
        <mxCell id="N_l56KZWyoBlaE_ASB7Y-32" value="&lt;b style=&quot;border-color: var(--border-color); font-family: &amp;quot;Times New Roman&amp;quot;; font-size: 18px;&quot;&gt;C0&lt;/b&gt;" style="whiteSpace=wrap;html=1;aspect=fixed;fillColor=#FB8402;" parent="1" vertex="1">
          <mxGeometry x="219" y="321" width="38" height="38" as="geometry" />
        </mxCell>
        <mxCell id="N_l56KZWyoBlaE_ASB7Y-33" value="&lt;b style=&quot;border-color: var(--border-color); font-family: &amp;quot;Times New Roman&amp;quot;; font-size: 18px;&quot;&gt;C1&lt;/b&gt;" style="whiteSpace=wrap;html=1;aspect=fixed;fillColor=#FB8402;" parent="1" vertex="1">
          <mxGeometry x="257" y="321" width="38" height="38" as="geometry" />
        </mxCell>
        <mxCell id="N_l56KZWyoBlaE_ASB7Y-34" value="&lt;b style=&quot;border-color: var(--border-color); font-family: &amp;quot;Times New Roman&amp;quot;; font-size: 18px;&quot;&gt;C2&lt;/b&gt;" style="whiteSpace=wrap;html=1;aspect=fixed;fillColor=#FB8402;" parent="1" vertex="1">
          <mxGeometry x="295" y="321" width="38" height="38" as="geometry" />
        </mxCell>
        <mxCell id="N_l56KZWyoBlaE_ASB7Y-35" value="&lt;b style=&quot;border-color: var(--border-color); font-family: &amp;quot;Times New Roman&amp;quot;; font-size: 18px;&quot;&gt;C3&lt;/b&gt;" style="whiteSpace=wrap;html=1;aspect=fixed;fillColor=#FB8402;" parent="1" vertex="1">
          <mxGeometry x="333" y="321" width="38" height="38" as="geometry" />
        </mxCell>
        <mxCell id="N_l56KZWyoBlaE_ASB7Y-36" value="&lt;b style=&quot;border-color: var(--border-color); font-family: &amp;quot;Times New Roman&amp;quot;; font-size: 18px;&quot;&gt;D0&lt;/b&gt;" style="whiteSpace=wrap;html=1;aspect=fixed;fillColor=#219EBC;" parent="1" vertex="1">
          <mxGeometry x="219" y="371" width="38" height="38" as="geometry" />
        </mxCell>
        <mxCell id="N_l56KZWyoBlaE_ASB7Y-37" value="&lt;b style=&quot;border-color: var(--border-color); font-family: &amp;quot;Times New Roman&amp;quot;; font-size: 18px;&quot;&gt;D1&lt;/b&gt;" style="whiteSpace=wrap;html=1;aspect=fixed;fillColor=#219EBC;" parent="1" vertex="1">
          <mxGeometry x="257" y="371" width="38" height="38" as="geometry" />
        </mxCell>
        <mxCell id="N_l56KZWyoBlaE_ASB7Y-38" value="&lt;b style=&quot;border-color: var(--border-color); font-family: &amp;quot;Times New Roman&amp;quot;; font-size: 18px;&quot;&gt;D2&lt;/b&gt;" style="whiteSpace=wrap;html=1;aspect=fixed;fillColor=#219EBC;" parent="1" vertex="1">
          <mxGeometry x="295" y="371" width="38" height="38" as="geometry" />
        </mxCell>
        <mxCell id="N_l56KZWyoBlaE_ASB7Y-39" value="&lt;b style=&quot;border-color: var(--border-color); font-family: &amp;quot;Times New Roman&amp;quot;; font-size: 18px;&quot;&gt;D3&lt;/b&gt;" style="whiteSpace=wrap;html=1;aspect=fixed;fillColor=#219EBC;" parent="1" vertex="1">
          <mxGeometry x="333" y="371" width="38" height="38" as="geometry" />
        </mxCell>
      </root>
    </mxGraphModel>
  </diagram>
</mxfile>
